<svg xmlns="http://www.w3.org/2000/svg" viewBox="0 0 79 79" enable-background="new 0 0 79 79"><path fill-rule="evenodd" clip-rule="evenodd" fill="#278AC4" d="M39.5 0c-21.82 0-39.5 17.68-39.5 39.5s17.68 39.5 39.5 39.5 39.5-17.68 39.5-39.5-17.68-39.5-39.5-39.5zm0 78c-21.26 0-38.5-17.24-38.5-38.5s17.24-38.5 38.5-38.5 38.5 17.24 38.5 38.5-17.24 38.5-38.5 38.5z"/><g fill="#278AC4"><path d="M19.64 39.8l12.48 6.43v-1.86l-10.52-5.27v-.05l10.52-5.27v-1.86l-12.48 6.43v1.45zM33.62 51.21h1.8l9.49-23.42h-1.83l-9.46 23.42zM46.87 33.77l10.6 5.27v.05l-10.6 5.28v1.86l12.49-6.41v-1.51l-12.49-6.4v1.86z"/></g></svg>