<svg xmlns="http://www.w3.org/2000/svg" viewBox="0 0 79 79" enable-background="new 0 0 79 79"><path fill-rule="evenodd" clip-rule="evenodd" fill="#278AC4" d="M39.5 0c-21.82 0-39.5 17.68-39.5 39.5s17.68 39.5 39.5 39.5 39.5-17.68 39.5-39.5-17.68-39.5-39.5-39.5zm0 78c-21.26 0-38.5-17.24-38.5-38.5s17.24-38.5 38.5-38.5 38.5 17.24 38.5 38.5-17.24 38.5-38.5 38.5z"/><g fill="#278AC4"><path d="M61.46 24.5h-43.92c-.85 0-1.55.68-1.55 1.52v26.07c0 .84.69 1.52 1.55 1.52h5.94c.31.53 1.01.89 1.85.89h1.38c.83 0 1.53-.36 1.84-.89h21.01c.31.53 1.01.89 1.85.89h1.38c.83 0 1.53-.36 1.84-.89h6.85c.85 0 1.55-.68 1.55-1.52v-26.07c-.02-.84-.72-1.52-1.57-1.52zm.22 27.59c0 .12-.1.22-.22.22h-7.99v.65c-.03.07-.28.24-.7.24h-1.38c-.42 0-.67-.17-.7-.24v-.65h-23.29v.65c-.03.07-.29.24-.7.24h-1.38c-.42 0-.67-.17-.7-.24v-.65h-7.08c-.12 0-.22-.1-.22-.22v-26.07c0-.12.1-.22.22-.22h43.93c.12 0 .22.1.22.22l-.01 26.07zM35.75 39.42c-.35-.56-1.36-.95-1.4-.97l-.08-.02c-.7-.32-1.35-.53-1.36-.53l-.28-.11c-.29-.14-.44-.24-.51-.29.45-.6.78-1.29.93-1.98.15-.21.25-.46.29-.69.17-.61.18-1.09.04-1.44.2-.89.31-2.29-.61-3.32-.15-.19-.74-.83-1.87-1.16l-.5-.17c-.82-.25-1.4-.32-1.54-.33l-.19.04-.16-.01c-.3 0-.6.1-.72.14-.32.13-1.92.86-2.44 2.42-.09.23-.25.88-.06 2.23-.22.37-.23.89-.05 1.52.05.29.15.54.3.75.14.71.45 1.38.86 1.95-.27.25-1.27.69-2.31 1-.91.34-1.32.87-1.38.95-1.2 1.75-1.34 5.39-1.35 5.58.02 1.07.54 1.4.78 1.5 2.63 1.15 6.59 1.35 6.77 1.36h.12l.01.03.54-.03c.17-.01 4.13-.22 6.76-1.36.24-.1.76-.44.78-1.53-.01-.15-.15-3.79-1.35-5.54l-.02.01zm-9.12-6.1c-.23-1.36-.05-1.86-.04-1.89.35-1.07 1.56-1.59 1.68-1.64l.2-.05.13.01.26-.03c.13.02.53.08 1.11.26l.51.17c.82.24 1.19.67 1.26.75.65.73.41 1.92.28 2.4l-.08.27.19.3c.01.07 0 .27-.1.67-.03.15-.07.21-.09.23l-.14.15-.03.2c-.22 1.27-1.39 2.75-2.58 2.75-.89 0-2.16-1.22-2.39-2.74l-.03-.2-.14-.15c-.05-.05-.08-.13-.12-.3-.09-.32-.09-.51-.11-.55l.29-.19-.06-.42zm9.1 12c-1.86.79-4.55 1.09-5.69 1.19v-.02l-.55.04-.54.02c-.04 0-3.83-.2-6.23-1.22-.02-.05-.05-.15-.05-.32.03-.95.31-3.67 1.1-4.83.01-.01.24-.29.73-.47.99-.3 2.16-.74 2.77-1.28.59.47 1.25.77 1.92.77.73 0 1.41-.29 2-.74.21.18.49.35.86.53l.43.17s.6.19 1.29.5l.13.04c.48.18.72.43.76.48.81 1.2 1.08 3.9 1.11 4.81.01.17-.02.28-.04.33zM41.35 30.73h16.05v1.3h-16.05v-1.3zM41.35 35.18h11.45v1.3h-11.45v-1.3zM41.35 43.66h11.45v1.3h-11.45v-1.3zM41.35 39.42h16.05v1.3h-16.05v-1.3z"/></g></svg>