<svg xmlns="http://www.w3.org/2000/svg" viewBox="0 0 79 79" enable-background="new 0 0 79 79"><path fill-rule="evenodd" clip-rule="evenodd" fill="#278AC4" d="M39.5 0c-21.82 0-39.5 17.68-39.5 39.5s17.68 39.5 39.5 39.5 39.5-17.68 39.5-39.5-17.68-39.5-39.5-39.5zm0 78c-21.26 0-38.5-17.24-38.5-38.5s17.24-38.5 38.5-38.5 38.5 17.24 38.5 38.5-17.24 38.5-38.5 38.5z"/><g fill="#278AC4"><path d="M39.5 40.28l18.01-8.64-17.96-8.62-.05-.02-18.01 8.64 17.96 8.62.05.02zm0-16.14l15.62 7.5-15.62 7.5-15.62-7.5 15.62-7.5zM49.34 44.58l5.79 2.78-15.62 7.5-15.62-7.5 5.8-2.78-.66-.83-7.53 3.61 17.96 8.62.05.02 18.01-8.64-7.52-3.6-.66.82zM49.34 36.84l5.79 2.78-15.62 7.5-15.62-7.5 5.8-2.78-.67-.84-7.53 3.61 17.96 8.62.05.02 18.01-8.64-7.51-3.6-.66.83z"/></g></svg>