<svg xmlns="http://www.w3.org/2000/svg" viewBox="0 0 79 79" enable-background="new 0 0 79 79"><path fill-rule="evenodd" clip-rule="evenodd" fill="#278AC4" d="M39.5 0c-21.82 0-39.5 17.68-39.5 39.5s17.68 39.5 39.5 39.5 39.5-17.68 39.5-39.5-17.68-39.5-39.5-39.5zm0 78c-21.26 0-38.5-17.24-38.5-38.5s17.24-38.5 38.5-38.5 38.5 17.24 38.5 38.5-17.24 38.5-38.5 38.5z"/><path fill="#278AC4" d="M54.49 39.46c0 .34-.15 1.13-1.59 1.13h-6.58v15.14l.02.24c0 .39-.15.74-.42 1.01-.35.34-.88.51-1.58.51h-10.1c-1.4 0-1.77-.99-1.77-1.52v-14.92h-6.03c-1.68 0-1.94-.8-1.94-1.28 0-.77.73-1.53.88-1.68.39-.52 10.84-14.42 12.36-15.94.55-.55 1.11-.65 1.48-.64.89.04 1.49.72 1.56.8l12.76 15.45c.18.17.95.95.95 1.7zm-9.38 16.43v-16.520000000000003h7.8c.15 0 .26-.01.33-.03-.09-.2-.34-.52-.58-.75l-12.8-15.5c-.08-.09-.38-.36-.68-.36-.18-.01-.37.08-.56.28-1.46 1.47-12.19 15.74-12.3 15.88-.31.32-.56.7-.57.86.03-.01.21.08.72.08h7.25v16.14c.01.2.19.3.55.3h10.11c.52 0 .69-.13.73-.17.02-.01.05-.05.05-.14l-.05-.07z"/></svg>