<svg xmlns="http://www.w3.org/2000/svg" viewBox="0 0 79 79" enable-background="new 0 0 79 79"><path fill-rule="evenodd" clip-rule="evenodd" fill="#278AC4" d="M39.5 0c-21.82 0-39.5 17.68-39.5 39.5s17.68 39.5 39.5 39.5 39.5-17.68 39.5-39.5-17.68-39.5-39.5-39.5zm0 78c-21.26 0-38.5-17.24-38.5-38.5s17.24-38.5 38.5-38.5 38.5 17.24 38.5 38.5-17.24 38.5-38.5 38.5z"/><g fill="#278AC4"><path d="M43.55 21.51c-1.32 0-2.63.14-3.89.43l.02.1c-1.35-.33-2.76-.52-4.22-.52-9.9 0-17.95 8.07-17.95 17.99 0 9.92 8.05 17.99 17.95 17.99 1.38 0 2.73-.17 4.02-.47 1.32.31 2.69.47 4.07.47 9.89 0 17.94-8.07 17.94-17.99 0-9.93-8.05-18-17.94-18zm-24.31 17.99c0-8.97 7.28-16.26 16.22-16.26s16.21 7.29 16.21 16.26c0 8.97-7.27 16.26-16.21 16.26s-16.22-7.29-16.22-16.26zm24.31 16.26l-.41-.02c6.06-2.89 10.26-9.07 10.26-16.23 0-7.17-4.21-13.35-10.26-16.24l.41-.02c8.94 0 16.21 7.29 16.21 16.26 0 8.96-7.27 16.25-16.21 16.25zM36.31 38.24c-2.38-1.01-3.21-1.72-3.21-3.12 0-1.12.62-2.38 2.72-2.38 1.75 0 2.87.63 3.45.96l.68-1.81c-.82-.47-1.94-.91-3.55-.96v-2.66h-1.72v2.74c-2.49.41-4.1 2.14-4.1 4.41 0 2.38 1.72 3.67 4.51 4.77 2.02.82 2.91 1.75 2.91 3.26 0 1.57-1.14 2.69-3.08 2.69-1.53 0-2.95-.55-3.91-1.18l-.66 1.83c.96.68 2.57 1.18 4.15 1.21v2.74h1.72v-2.85c2.81-.44 4.31-2.47 4.31-4.66.02-2.44-1.4-3.84-4.22-4.99z"/></g></svg>