<svg xmlns="http://www.w3.org/2000/svg" viewBox="0 0 79 79" enable-background="new 0 0 79 79"><path fill-rule="evenodd" clip-rule="evenodd" fill="#278AC4" d="M39.5 0c-21.82 0-39.5 17.68-39.5 39.5s17.68 39.5 39.5 39.5 39.5-17.68 39.5-39.5-17.68-39.5-39.5-39.5zm0 78c-21.26 0-38.5-17.24-38.5-38.5s17.24-38.5 38.5-38.5 38.5 17.24 38.5 38.5-17.24 38.5-38.5 38.5z"/><path fill="#278AC4" d="M20.09 24.1h22.25v-1.09h-23.35v32.98h23.35v-1.09h-22.25v-30.8zm28.23 3.8l-1.09 1.07 9.85 9.77h-32.61v1.52h32.61l-9.84 9.77 1.09 1.08 11.7-11.6-11.71-11.61z"/></svg>