<svg xmlns="http://www.w3.org/2000/svg" viewBox="0 0 79 79" enable-background="new 0 0 79 79"><path fill-rule="evenodd" clip-rule="evenodd" fill="#278AC4" d="M39.5 0c-21.82 0-39.5 17.68-39.5 39.5s17.68 39.5 39.5 39.5 39.5-17.68 39.5-39.5-17.68-39.5-39.5-39.5zm0 78c-21.26 0-38.5-17.24-38.5-38.5s17.24-38.5 38.5-38.5 38.5 17.24 38.5 38.5-17.24 38.5-38.5 38.5z"/><g fill="#278AC4"><path d="M55.95 29.53h-.58v-7.95c0-1.42-1.15-2.57-2.56-2.57h-1.13l-.12.01c-8.56 1.42-28.52 7.4-28.71 7.46-2.34.69-2.34 2.41-2.34 3.44v27.509999999999998c0 1.42 1.15 2.57 2.56 2.57h32.89c1.41 0 2.56-1.15 2.56-2.57v-25.33c-.02-1.42-1.16-2.57-2.57-2.57zm-32.68-1.58c.2-.06 19.97-5.99 28.47-7.41h1.06c.57 0 1.03.47 1.03 1.04v7.95h-30.78c-.37 0-.71.08-1.03.22.01-.87.08-1.46 1.25-1.8zm33.71 21.8h-10.04c-.57 0-1.03-.47-1.03-1.04v-5.11c0-.57.46-1.04 1.03-1.04h10.04v7.19zm-10.04-8.72c-1.41 0-2.56 1.15-2.56 2.57v5.11c0 1.42 1.15 2.57 2.56 2.57h10.04v6.15c0 .57-.46 1.04-1.03 1.04h-32.9c-.57 0-1.03-.47-1.03-1.04v-25.33c0-.57.46-1.04 1.03-1.04h32.89c.57 0 1.03.47 1.03 1.04v8.93h-10.03zM48.53 44.99c.62 0 1.12.51 1.12 1.13 0 .62-.5 1.13-1.12 1.13-.62 0-1.12-.5-1.12-1.13 0-.63.5-1.13 1.12-1.13z"/></g></svg>