<svg xmlns="http://www.w3.org/2000/svg" viewBox="0 0 31 16" enable-background="new 0 0 31 16"><g fill="#fff"><path fill-rule="evenodd" clip-rule="evenodd" d="M0 12h11v1h-11v-1z"/><path fill-rule="evenodd" clip-rule="evenodd" d="M5 15h6v1h-6v-1z"/><path fill-rule="evenodd" clip-rule="evenodd" d="M5 9h6v1h-6v-1z"/><path d="M29.21 16c.45 0 .84-.15 1.17-.45l-5.67-5.77-.39.29c-.42.32-.77.57-1.03.74-.26.18-.62.36-1.05.55-.44.19-.85.28-1.23.28h-.02c-.38 0-.79-.09-1.23-.28-.44-.19-.79-.37-1.05-.55-.26-.18-.61-.43-1.03-.74l-.39-.29-5.67 5.77c.33.3.72.45 1.17.45h16.42zM12.13 6.15c-.43-.29-.8-.62-1.13-.99v8.78l4.99-5.08c-.99-.72-2.28-1.62-3.86-2.71zM29.88 6.15c-1.52 1.05-2.81 1.95-3.88 2.71l5 5.08v-8.78c-.32.36-.69.69-1.12.99zM29.21 0h-16.42c-.57 0-1.01.2-1.32.59-.32.39-.47.89-.47 1.48 0 .48.2.99.61 1.55s.84.99 1.31 1.31l2.29 1.62 1.8 1.27 1.13.8.17.12.31.23c.24.18.44.32.6.43.16.11.35.23.58.37.23.14.44.24.64.31s.39.1.56.1h.01c.17 0 .36-.03.56-.1.2-.07.41-.17.64-.31.23-.14.42-.26.58-.37.16-.11.36-.25.6-.43l.31-.23.17-.12 1.13-.8c.93-.65 2.29-1.62 4.09-2.89.54-.39 1-.85 1.36-1.4.37-.54.55-1.11.55-1.71 0-.5-.18-.93-.53-1.28-.35-.36-.77-.54-1.26-.54z"/></g></svg>