<svg xmlns="http://www.w3.org/2000/svg" viewBox="0 0 79 79" enable-background="new 0 0 79 79"><path fill-rule="evenodd" clip-rule="evenodd" fill="#278AC4" d="M39.5 0c-21.82 0-39.5 17.68-39.5 39.5s17.68 39.5 39.5 39.5 39.5-17.68 39.5-39.5-17.68-39.5-39.5-39.5zm0 78c-21.26 0-38.5-17.24-38.5-38.5s17.24-38.5 38.5-38.5 38.5 17.24 38.5 38.5-17.24 38.5-38.5 38.5z"/><path fill-rule="evenodd" clip-rule="evenodd" fill="#278AC4" d="M45.92 51.38c5.63-2.5 9.58-8.16 9.58-14.74 0-8.88-7.18-16.11-16-16.11s-16 7.23-16 16.11c0 6.69 4.08 12.44 9.87 14.87l-5.05 8.27c-.33.54-.16 1.24.37 1.57.19.12.39.17.59.17.38 0 .75-.19.97-.54l5.33-8.74c1.26.32 2.56.51 3.92.51 1.47 0 2.89-.22 4.24-.59l.02.05 5.36 8.78c.21.35.59.54.97.54.2 0 .41-.06.59-.17.53-.33.7-1.03.37-1.57l-5.13-8.41zm-6.42-.92c-7.57 0-13.73-6.2-13.73-13.82s6.16-13.82 13.73-13.82 13.73 6.2 13.73 13.82-6.16 13.82-13.73 13.82zm0-24.42c-5.81 0-10.53 4.76-10.53 10.6 0 5.85 4.72 10.6 10.53 10.6s10.53-4.75 10.53-10.6-4.72-10.6-10.53-10.6zm0 18.91c-4.56 0-8.26-3.73-8.26-8.31s3.71-8.31 8.26-8.31c4.56 0 8.26 3.73 8.26 8.31s-3.7 8.31-8.26 8.31zm0-13.18c-2.67 0-4.84 2.19-4.84 4.87 0 2.69 2.17 4.87 4.84 4.87s4.84-2.19 4.84-4.87c0-2.69-2.17-4.87-4.84-4.87zm0 7.46c-1.42 0-2.57-1.16-2.57-2.59s1.15-2.59 2.57-2.59 2.57 1.16 2.57 2.59-1.15 2.59-2.57 2.59z"/></svg>