<?xml version="1.0" encoding="utf-8"?>
<!-- Generator: Adobe Illustrator 17.1.0, SVG Export Plug-In . SVG Version: 6.00 Build 0)  -->
<!DOCTYPE svg PUBLIC "-//W3C//DTD SVG 1.1//EN" "http://www.w3.org/Graphics/SVG/1.1/DTD/svg11.dtd">
<svg version="1.1" id="Layer_1" xmlns="http://www.w3.org/2000/svg" xmlns:xlink="http://www.w3.org/1999/xlink" x="0px" y="0px"
	 viewBox="0 0 79 79" enable-background="new 0 0 79 79" xml:space="preserve">
<path fill-rule="evenodd" clip-rule="evenodd" fill="#278AC4" d="M39.5,0C17.68,0,0,17.68,0,39.5S17.68,79,39.5,79
	C61.32,79,79,61.32,79,39.5S61.32,0,39.5,0z M39.5,78C18.24,78,1,60.76,1,39.5S18.24,1,39.5,1C60.76,1,78,18.24,78,39.5
	S60.76,78,39.5,78z"/>
<g id="G9sxzt_1_">
</g>
<g>
	<path fill="#278AC4" d="M61.46,24.5H17.54c-0.85,0-1.55,0.68-1.55,1.52v26.07c0,0.84,0.69,1.52,1.55,1.52h5.94
		c0.31,0.53,1.01,0.89,1.85,0.89h1.38c0.83,0,1.53-0.36,1.84-0.89h21.01c0.31,0.53,1.01,0.89,1.85,0.89h1.38
		c0.83,0,1.53-0.36,1.84-0.89h6.85c0.85,0,1.55-0.68,1.55-1.52V26.02C63.01,25.18,62.31,24.5,61.46,24.5z M61.68,52.09
		c0,0.12-0.1,0.22-0.22,0.22h-7.33l-0.66,0v0.65c-0.03,0.07-0.28,0.24-0.7,0.24h-1.38c-0.42,0-0.67-0.17-0.7-0.24v-0.65H28.06
		l-0.66,0v0.65c-0.03,0.07-0.29,0.24-0.7,0.24h-1.38c-0.42,0-0.67-0.17-0.7-0.24v-0.65h-7.08c-0.12,0-0.22-0.1-0.22-0.22V26.02
		c0-0.12,0.1-0.22,0.22-0.22h43.93c0.12,0,0.22,0.1,0.22,0.22L61.68,52.09L61.68,52.09z"/>
	<path fill="#278AC4" d="M35.75,39.42c-0.35-0.56-1.36-0.95-1.4-0.97l-0.08-0.02c-0.7-0.32-1.35-0.53-1.36-0.53
		c-0.11-0.04-0.22-0.08-0.28-0.11c-0.29-0.14-0.44-0.24-0.51-0.29c0.45-0.6,0.78-1.29,0.93-1.98c0.15-0.21,0.25-0.46,0.29-0.69
		c0.17-0.61,0.18-1.09,0.04-1.44c0.2-0.89,0.31-2.29-0.61-3.32c-0.15-0.19-0.74-0.83-1.87-1.16l-0.5-0.17
		c-0.82-0.25-1.4-0.32-1.54-0.33c-0.08,0-0.15,0.01-0.19,0.04l-0.16-0.01c-0.3,0-0.6,0.1-0.72,0.14c-0.32,0.13-1.92,0.86-2.44,2.42
		c-0.09,0.23-0.25,0.88-0.06,2.23c-0.22,0.37-0.23,0.89-0.05,1.52c0.05,0.29,0.15,0.54,0.3,0.75c0.14,0.71,0.45,1.38,0.86,1.95
		c-0.27,0.25-1.27,0.69-2.31,1c-0.91,0.34-1.32,0.87-1.38,0.95c-1.2,1.75-1.34,5.39-1.35,5.58c0.02,1.07,0.54,1.4,0.78,1.5
		c2.63,1.15,6.59,1.35,6.77,1.36c0.04,0,0.08,0,0.12,0l0.01,0.03l0.54-0.03c0.17-0.01,4.13-0.22,6.76-1.36
		c0.24-0.1,0.76-0.44,0.78-1.53c-0.01-0.15-0.15-3.79-1.35-5.54L35.75,39.42z M26.63,33.32c-0.23-1.36-0.05-1.86-0.04-1.89
		c0.35-1.07,1.56-1.59,1.68-1.64c0.06-0.02,0.18-0.05,0.2-0.05l0.13,0.01c0.1,0,0.19-0.02,0.26-0.03c0.13,0.02,0.53,0.08,1.11,0.26
		l0.51,0.17c0.82,0.24,1.19,0.67,1.26,0.75c0.65,0.73,0.41,1.92,0.28,2.4l-0.08,0.27l0.19,0.3c0.01,0.07,0,0.27-0.1,0.67
		c-0.03,0.15-0.07,0.21-0.09,0.23l-0.14,0.15l-0.03,0.2c-0.22,1.27-1.39,2.75-2.58,2.75c-0.89,0-2.16-1.22-2.39-2.74l-0.03-0.2
		l-0.14-0.15c-0.05-0.05-0.08-0.13-0.12-0.3c-0.09-0.32-0.09-0.51-0.11-0.55l0.29-0.19L26.63,33.32z M35.73,45.32
		c-1.86,0.79-4.55,1.09-5.69,1.19l0-0.02l-0.55,0.04c-0.18,0.01-0.36,0.02-0.54,0.02c-0.04,0-3.83-0.2-6.23-1.22
		c-0.02-0.05-0.05-0.15-0.05-0.32c0.03-0.95,0.31-3.67,1.1-4.83c0.01-0.01,0.24-0.29,0.73-0.47c0.99-0.3,2.16-0.74,2.77-1.28
		c0.59,0.47,1.25,0.77,1.92,0.77c0.73,0,1.41-0.29,2-0.74c0.21,0.18,0.49,0.35,0.86,0.53c0.13,0.05,0.26,0.11,0.43,0.17
		c0,0,0.6,0.19,1.29,0.5l0.13,0.04c0.48,0.18,0.72,0.43,0.76,0.48c0.81,1.2,1.08,3.9,1.11,4.81C35.78,45.16,35.75,45.27,35.73,45.32
		z"/>
	<path fill="#278AC4" d="M41.35,30.73H57.4v1.3H41.35V30.73z"/>
	<path fill="#278AC4" d="M41.35,35.18H52.8v1.3H41.35V35.18z"/>
	<path fill="#278AC4" d="M41.35,43.66H52.8v1.3H41.35V43.66z"/>
	<path fill="#278AC4" d="M41.35,39.42H57.4v1.3H41.35V39.42z"/>
</g>
</svg>
