<?xml version="1.0" encoding="utf-8"?>
<!-- Generator: Adobe Illustrator 17.1.0, SVG Export Plug-In . SVG Version: 6.00 Build 0)  -->
<!DOCTYPE svg PUBLIC "-//W3C//DTD SVG 1.1//EN" "http://www.w3.org/Graphics/SVG/1.1/DTD/svg11.dtd">
<svg version="1.1" id="Layer_1" xmlns="http://www.w3.org/2000/svg" xmlns:xlink="http://www.w3.org/1999/xlink" x="0px" y="0px"
	 viewBox="0 0 79 79" enable-background="new 0 0 79 79" xml:space="preserve">
<path fill-rule="evenodd" clip-rule="evenodd" fill="#278AC4" d="M39.5,0C17.68,0,0,17.68,0,39.5S17.68,79,39.5,79
	C61.32,79,79,61.32,79,39.5S61.32,0,39.5,0z M39.5,78C18.24,78,1,60.76,1,39.5S18.24,1,39.5,1C60.76,1,78,18.24,78,39.5
	S60.76,78,39.5,78z"/>
<g id="G9sxzt_1_">
</g>
<g>
	<path fill="#278AC4" d="M39.5,40.28l18.01-8.64l-17.96-8.62l-0.05-0.02l-18.01,8.64l17.96,8.62L39.5,40.28z M39.5,24.14l15.62,7.5
		l-15.62,7.5l-15.62-7.5L39.5,24.14z"/>
	<path fill="#278AC4" d="M49.34,44.58l5.79,2.78l-15.62,7.5l-15.62-7.5l5.8-2.78l-0.66-0.83l-7.53,3.61l17.96,8.62l0.05,0.02
		l18.01-8.64L50,43.76L49.34,44.58z"/>
	<path fill="#278AC4" d="M49.34,36.84l5.79,2.78l-15.62,7.5l-15.62-7.5l5.8-2.78L29.02,36l-7.53,3.61l17.96,8.62l0.05,0.02
		l18.01-8.64L50,36.01L49.34,36.84z"/>
</g>
</svg>
