<?xml version="1.0" encoding="utf-8"?>
<!-- Generator: Adobe Illustrator 17.1.0, SVG Export Plug-In . SVG Version: 6.00 Build 0)  -->
<!DOCTYPE svg PUBLIC "-//W3C//DTD SVG 1.1//EN" "http://www.w3.org/Graphics/SVG/1.1/DTD/svg11.dtd">
<svg version="1.1" id="Layer_1" xmlns="http://www.w3.org/2000/svg" xmlns:xlink="http://www.w3.org/1999/xlink" x="0px" y="0px"
	 viewBox="0 0 31 16" enable-background="new 0 0 31 16" xml:space="preserve">
<g>
	<path fill-rule="evenodd" clip-rule="evenodd" fill="#FFFFFF" d="M0,12h11v1H0V12z"/>
	<path fill-rule="evenodd" clip-rule="evenodd" fill="#FFFFFF" d="M5,15h6v1H5V15z"/>
	<path fill-rule="evenodd" clip-rule="evenodd" fill="#FFFFFF" d="M5,9h6v1H5V9z"/>
	<path fill="#FFFFFF" d="M29.21,16c0.45,0,0.84-0.15,1.17-0.45l-5.67-5.77c-0.14,0.1-0.27,0.2-0.39,0.29
		c-0.42,0.32-0.77,0.57-1.03,0.74c-0.26,0.18-0.62,0.36-1.05,0.55c-0.44,0.19-0.85,0.28-1.23,0.28H21h-0.01
		c-0.38,0-0.79-0.09-1.23-0.28c-0.44-0.19-0.79-0.37-1.05-0.55c-0.26-0.18-0.61-0.43-1.03-0.74c-0.12-0.09-0.25-0.19-0.39-0.29
		l-5.67,5.77c0.33,0.3,0.72,0.45,1.17,0.45H29.21z"/>
	<path fill="#FFFFFF" d="M12.13,6.15C11.7,5.86,11.33,5.53,11,5.16v8.78l4.99-5.08C15,8.14,13.71,7.24,12.13,6.15z"/>
	<path fill="#FFFFFF" d="M29.88,6.15c-1.52,1.05-2.81,1.95-3.88,2.71L31,13.94V5.16C30.68,5.52,30.31,5.85,29.88,6.15z"/>
	<path fill="#FFFFFF" d="M29.21,0H12.79c-0.57,0-1.01,0.2-1.32,0.59C11.15,0.98,11,1.48,11,2.07c0,0.48,0.2,0.99,0.61,1.55
		c0.41,0.56,0.84,0.99,1.31,1.31c0.25,0.18,1.02,0.72,2.29,1.62c0.69,0.48,1.28,0.91,1.8,1.27c0.44,0.31,0.81,0.58,1.13,0.8
		c0.04,0.03,0.09,0.07,0.17,0.12c0.08,0.06,0.18,0.13,0.31,0.23c0.24,0.18,0.44,0.32,0.6,0.43c0.16,0.11,0.35,0.23,0.58,0.37
		c0.23,0.14,0.44,0.24,0.64,0.31c0.2,0.07,0.39,0.1,0.56,0.1H21h0.01c0.17,0,0.36-0.03,0.56-0.1c0.2-0.07,0.41-0.17,0.64-0.31
		c0.23-0.14,0.42-0.26,0.58-0.37c0.16-0.11,0.36-0.25,0.6-0.43c0.13-0.09,0.23-0.17,0.31-0.23c0.07-0.05,0.13-0.1,0.17-0.12
		c0.24-0.17,0.62-0.44,1.13-0.8c0.93-0.65,2.29-1.62,4.09-2.89c0.54-0.39,1-0.85,1.36-1.4C30.82,2.99,31,2.42,31,1.82
		c0-0.5-0.18-0.93-0.53-1.28C30.12,0.18,29.7,0,29.21,0z"/>
</g>
</svg>
