<?xml version="1.0" encoding="utf-8"?>
<!-- Generator: Adobe Illustrator 17.1.0, SVG Export Plug-In . SVG Version: 6.00 Build 0)  -->
<!DOCTYPE svg PUBLIC "-//W3C//DTD SVG 1.1//EN" "http://www.w3.org/Graphics/SVG/1.1/DTD/svg11.dtd">
<svg version="1.1" id="Layer_1" xmlns="http://www.w3.org/2000/svg" xmlns:xlink="http://www.w3.org/1999/xlink" x="0px" y="0px"
	 viewBox="0 0 79 79" enable-background="new 0 0 79 79" xml:space="preserve">
<path fill-rule="evenodd" clip-rule="evenodd" fill="#278AC4" d="M39.5,0C17.68,0,0,17.68,0,39.5S17.68,79,39.5,79
	C61.32,79,79,61.32,79,39.5S61.32,0,39.5,0z M39.5,78C18.24,78,1,60.76,1,39.5S18.24,1,39.5,1C60.76,1,78,18.24,78,39.5
	S60.76,78,39.5,78z"/>
<g id="G9sxzt_1_">
</g>
<g>
	<path fill="#278AC4" d="M43.55,21.51c-1.32,0-2.63,0.14-3.89,0.43l0.02,0.1c-1.35-0.33-2.76-0.52-4.22-0.52
		c-9.9,0-17.95,8.07-17.95,17.99c0,9.92,8.05,17.99,17.95,17.99c1.38,0,2.73-0.17,4.02-0.47c1.32,0.31,2.69,0.47,4.07,0.47
		c9.89,0,17.94-8.07,17.94-17.99C61.49,29.58,53.44,21.51,43.55,21.51z M19.24,39.5c0-8.97,7.28-16.26,16.22-16.26
		s16.21,7.29,16.21,16.26c0,8.97-7.27,16.26-16.21,16.26S19.24,48.47,19.24,39.5z M43.55,55.76c-0.14,0-0.27-0.02-0.41-0.02
		c6.06-2.89,10.26-9.07,10.26-16.23c0-7.17-4.21-13.35-10.26-16.24c0.14,0,0.27-0.02,0.41-0.02c8.94,0,16.21,7.29,16.21,16.26
		C59.76,48.47,52.49,55.76,43.55,55.76z"/>
	<path fill="#278AC4" d="M36.31,38.24c-2.38-1.01-3.21-1.72-3.21-3.12c0-1.12,0.62-2.38,2.72-2.38c1.75,0,2.87,0.63,3.45,0.96
		l0.68-1.81c-0.82-0.47-1.94-0.91-3.55-0.96l0-2.66h-1.72v2.74c-2.49,0.41-4.1,2.14-4.1,4.41c0,2.38,1.72,3.67,4.51,4.77
		c2.02,0.82,2.91,1.75,2.91,3.26c0,1.57-1.14,2.69-3.08,2.69c-1.53,0-2.95-0.55-3.91-1.18l-0.66,1.83c0.96,0.68,2.57,1.18,4.15,1.21
		v2.74h1.72l0-2.85c2.81-0.44,4.31-2.47,4.31-4.66C40.55,40.79,39.13,39.39,36.31,38.24z"/>
</g>
</svg>
