<?xml version="1.0" encoding="utf-8"?>
<!-- Generator: Adobe Illustrator 17.1.0, SVG Export Plug-In . SVG Version: 6.00 Build 0)  -->
<!DOCTYPE svg PUBLIC "-//W3C//DTD SVG 1.1//EN" "http://www.w3.org/Graphics/SVG/1.1/DTD/svg11.dtd">
<svg version="1.1" id="Layer_1" xmlns="http://www.w3.org/2000/svg" xmlns:xlink="http://www.w3.org/1999/xlink" x="0px" y="0px"
	 viewBox="0 0 79 79" enable-background="new 0 0 79 79" xml:space="preserve">
<path fill-rule="evenodd" clip-rule="evenodd" fill="#278AC4" d="M39.5,0C17.68,0,0,17.68,0,39.5S17.68,79,39.5,79
	C61.32,79,79,61.32,79,39.5S61.32,0,39.5,0z M39.5,78C18.24,78,1,60.76,1,39.5S18.24,1,39.5,1C60.76,1,78,18.24,78,39.5
	S60.76,78,39.5,78z"/>
<g id="G9sxzt_1_">
</g>
<g>
	<g>
		<g>
			<path fill="#278AC4" d="M20.09,24.1h22.25v-1.09H18.99v32.98h23.35V54.9H20.09V24.1z M48.32,27.9l-1.09,1.07l9.85,9.77H24.47
				v1.52h32.61l-9.84,9.77l1.09,1.08l11.7-11.6L48.32,27.9z"/>
		</g>
	</g>
</g>
</svg>
