<?xml version="1.0" encoding="utf-8"?>
<!-- Generator: Adobe Illustrator 17.1.0, SVG Export Plug-In . SVG Version: 6.00 Build 0)  -->
<!DOCTYPE svg PUBLIC "-//W3C//DTD SVG 1.1//EN" "http://www.w3.org/Graphics/SVG/1.1/DTD/svg11.dtd">
<svg version="1.1" id="Layer_1" xmlns="http://www.w3.org/2000/svg" xmlns:xlink="http://www.w3.org/1999/xlink" x="0px" y="0px"
	 viewBox="0 0 79 79" enable-background="new 0 0 79 79" xml:space="preserve">
<path fill-rule="evenodd" clip-rule="evenodd" fill="#278AC4" d="M39.5,0C17.68,0,0,17.68,0,39.5S17.68,79,39.5,79
	C61.32,79,79,61.32,79,39.5S61.32,0,39.5,0z M39.5,78C18.24,78,1,60.76,1,39.5S18.24,1,39.5,1C60.76,1,78,18.24,78,39.5
	S60.76,78,39.5,78z"/>
<g id="G9sxzt_1_">
</g>
<g>
	<path fill="#278AC4" d="M19.64,39.8l12.48,6.43v-1.86L21.6,39.1v-0.05l10.52-5.27v-1.86l-12.48,6.43V39.8z"/>
	<path fill="#278AC4" d="M33.62,51.21h1.8l9.49-23.42h-1.83L33.62,51.21z"/>
	<path fill="#278AC4" d="M46.87,33.77l10.6,5.27v0.05l-10.6,5.28v1.86l12.49-6.41v-1.51l-12.49-6.4V33.77z"/>
</g>
</svg>
