<?xml version="1.0" encoding="utf-8"?>
<!-- Generator: Adobe Illustrator 17.1.0, SVG Export Plug-In . SVG Version: 6.00 Build 0)  -->
<!DOCTYPE svg PUBLIC "-//W3C//DTD SVG 1.1//EN" "http://www.w3.org/Graphics/SVG/1.1/DTD/svg11.dtd">
<svg version="1.1" id="Layer_1" xmlns="http://www.w3.org/2000/svg" xmlns:xlink="http://www.w3.org/1999/xlink" x="0px" y="0px"
	 viewBox="0 0 79 79" enable-background="new 0 0 79 79" xml:space="preserve">
<path fill-rule="evenodd" clip-rule="evenodd" fill="#278AC4" d="M39.5,0C17.68,0,0,17.68,0,39.5S17.68,79,39.5,79
	C61.32,79,79,61.32,79,39.5S61.32,0,39.5,0z M39.5,78C18.24,78,1,60.76,1,39.5S18.24,1,39.5,1C60.76,1,78,18.24,78,39.5
	S60.76,78,39.5,78z"/>
<g id="Forma_1">
	<g>
		<path fill-rule="evenodd" clip-rule="evenodd" fill="#278AC4" d="M45.92,51.38c5.63-2.5,9.58-8.16,9.58-14.74
			c0-8.88-7.18-16.11-16-16.11c-8.82,0-16,7.23-16,16.11c0,6.69,4.08,12.44,9.87,14.87l-5.05,8.27c-0.33,0.54-0.16,1.24,0.37,1.57
			c0.19,0.12,0.39,0.17,0.59,0.17c0.38,0,0.75-0.19,0.97-0.54l5.33-8.74c1.26,0.32,2.56,0.51,3.92,0.51c1.47,0,2.89-0.22,4.24-0.59
			c0.01,0.01,0.01,0.03,0.02,0.05l5.36,8.78c0.21,0.35,0.59,0.54,0.97,0.54c0.2,0,0.41-0.06,0.59-0.17c0.53-0.33,0.7-1.03,0.37-1.57
			L45.92,51.38z M39.5,50.46c-7.57,0-13.73-6.2-13.73-13.82c0-7.62,6.16-13.82,13.73-13.82c7.57,0,13.73,6.2,13.73,13.82
			C53.23,44.26,47.07,50.46,39.5,50.46z M39.5,26.04c-5.81,0-10.53,4.76-10.53,10.6c0,5.85,4.72,10.6,10.53,10.6
			c5.81,0,10.53-4.75,10.53-10.6C50.03,30.79,45.31,26.04,39.5,26.04z M39.5,44.95c-4.56,0-8.26-3.73-8.26-8.31
			c0-4.58,3.71-8.31,8.26-8.31c4.56,0,8.26,3.73,8.26,8.31C47.76,41.22,44.06,44.95,39.5,44.95z M39.5,31.77
			c-2.67,0-4.84,2.19-4.84,4.87c0,2.69,2.17,4.87,4.84,4.87c2.67,0,4.84-2.19,4.84-4.87C44.34,33.95,42.17,31.77,39.5,31.77z
			 M39.5,39.23c-1.42,0-2.57-1.16-2.57-2.59c0-1.43,1.15-2.59,2.57-2.59c1.42,0,2.57,1.16,2.57,2.59
			C42.07,38.07,40.92,39.23,39.5,39.23z"/>
	</g>
</g>
</svg>
