<?xml version="1.0" encoding="utf-8"?>
<!-- Generator: Adobe Illustrator 17.1.0, SVG Export Plug-In . SVG Version: 6.00 Build 0)  -->
<!DOCTYPE svg PUBLIC "-//W3C//DTD SVG 1.1//EN" "http://www.w3.org/Graphics/SVG/1.1/DTD/svg11.dtd">
<svg version="1.1" id="Layer_1" xmlns="http://www.w3.org/2000/svg" xmlns:xlink="http://www.w3.org/1999/xlink" x="0px" y="0px"
	 viewBox="0 0 79 79" enable-background="new 0 0 79 79" xml:space="preserve">
<path fill-rule="evenodd" clip-rule="evenodd" fill="#278AC4" d="M39.5,0C17.68,0,0,17.68,0,39.5S17.68,79,39.5,79
	C61.32,79,79,61.32,79,39.5S61.32,0,39.5,0z M39.5,78C18.24,78,1,60.76,1,39.5S18.24,1,39.5,1C60.76,1,78,18.24,78,39.5
	S60.76,78,39.5,78z"/>
<g id="G9sxzt_1_">
</g>
<path fill="#278AC4" d="M54.49,39.46c0,0.34-0.15,1.13-1.59,1.13h-6.58v15.14c0.01,0.06,0.02,0.14,0.02,0.24
	c0,0.39-0.15,0.74-0.42,1.01c-0.35,0.34-0.88,0.51-1.58,0.51H34.24c-1.4,0-1.77-0.99-1.77-1.52V41.05h-6.03
	c-1.68,0-1.94-0.8-1.94-1.28c0-0.77,0.73-1.53,0.88-1.68c0.39-0.52,10.84-14.42,12.36-15.94c0.55-0.55,1.11-0.65,1.48-0.64
	c0.89,0.04,1.49,0.72,1.56,0.8l12.76,15.45C53.72,37.93,54.49,38.71,54.49,39.46z M45.11,55.89l0-0.1V39.37h7.8
	c0.15,0,0.26-0.01,0.33-0.03c-0.09-0.2-0.34-0.52-0.58-0.75l-12.8-15.5c-0.08-0.09-0.38-0.36-0.68-0.36
	c-0.18-0.01-0.37,0.08-0.56,0.28c-1.46,1.47-12.19,15.74-12.3,15.88c-0.31,0.32-0.56,0.7-0.57,0.86c0.03-0.01,0.21,0.08,0.72,0.08
	h7.25v16.14c0.01,0.2,0.19,0.3,0.55,0.3h10.11c0.52,0,0.69-0.13,0.73-0.17c0.02-0.01,0.05-0.05,0.05-0.14L45.11,55.89z"/>
</svg>
