<?xml version="1.0" encoding="utf-8"?>
<!-- Generator: Adobe Illustrator 17.1.0, SVG Export Plug-In . SVG Version: 6.00 Build 0)  -->
<!DOCTYPE svg PUBLIC "-//W3C//DTD SVG 1.1//EN" "http://www.w3.org/Graphics/SVG/1.1/DTD/svg11.dtd">
<svg version="1.1" id="Layer_1" xmlns="http://www.w3.org/2000/svg" xmlns:xlink="http://www.w3.org/1999/xlink" x="0px" y="0px"
	 viewBox="0 0 79 79" enable-background="new 0 0 79 79" xml:space="preserve">
<path fill-rule="evenodd" clip-rule="evenodd" fill="#278AC4" d="M39.5,0C17.68,0,0,17.68,0,39.5S17.68,79,39.5,79
	C61.32,79,79,61.32,79,39.5S61.32,0,39.5,0z M39.5,78C18.24,78,1,60.76,1,39.5S18.24,1,39.5,1C60.76,1,78,18.24,78,39.5
	S60.76,78,39.5,78z"/>
<g id="G9sxzt_1_">
</g>
<g>
	<path fill="#278AC4" d="M55.95,29.53h-0.58v-7.95c0-1.42-1.15-2.57-2.56-2.57h-1.13l-0.12,0.01c-8.56,1.42-28.52,7.4-28.71,7.46
		c-2.34,0.69-2.34,2.41-2.34,3.44v2.18v22.25v3.08c0,1.42,1.15,2.57,2.56,2.57h32.89c1.41,0,2.56-1.15,2.56-2.57v-6.15V41.03V32.1
		C58.5,30.68,57.36,29.53,55.95,29.53z M23.27,27.95c0.2-0.06,19.97-5.99,28.47-7.41h1.06c0.57,0,1.03,0.47,1.03,1.04v7.95H23.05
		c-0.37,0-0.71,0.08-1.03,0.22C22.03,28.88,22.1,28.29,23.27,27.95z M56.98,49.75H46.94c-0.57,0-1.03-0.47-1.03-1.04V43.6
		c0-0.57,0.46-1.04,1.03-1.04h10.04V49.75z M46.94,41.03c-1.41,0-2.56,1.15-2.56,2.57v5.11c0,1.42,1.15,2.57,2.56,2.57h10.04v6.15
		c0,0.57-0.46,1.04-1.03,1.04H23.05c-0.57,0-1.03-0.47-1.03-1.04v-3.08V32.1c0-0.57,0.46-1.04,1.03-1.04h32.89
		c0.57,0,1.03,0.47,1.03,1.04v8.93H46.94z"/>
	<path fill="#278AC4" d="M48.53,44.99c0.62,0,1.12,0.51,1.12,1.13c0,0.62-0.5,1.13-1.12,1.13c-0.62,0-1.12-0.5-1.12-1.13
		C47.41,45.49,47.91,44.99,48.53,44.99z"/>
</g>
</svg>
